<?xml version="1.0" standalone="no"?><!DOCTYPE svg PUBLIC "-//W3C//DTD SVG 1.1//EN" "http://www.w3.org/Graphics/SVG/1.1/DTD/svg11.dtd"><svg t="1533269834040" class="icon" style="" viewBox="0 0 1145 1024" version="1.1" xmlns="http://www.w3.org/2000/svg" p-id="1081" xmlns:xlink="http://www.w3.org/1999/xlink" width="143.125" height="128"><defs><style type="text/css"></style></defs><path fill="rgba(255,255,255,0.9)" d="M0 998.475072l0-25.524927 22.120511 0 22.120511 0 1.42212-29.278592c1.62649-33.486271 5.882457-44.289231 22.41666-56.900497l11.030402-8.413286 234.696247 0 234.696235 0 11.030402 8.413286c16.331419 12.456585 20.837589 23.548787 22.810696 56.149764l1.726596 28.527859 16.516129 0.77845c30.278148 1.427084 30.029325 1.236037 30.029325 23.056606 0 10.568941-0.820221 21.353763-1.82275 23.966255-1.645997 4.289419-32.220625 4.750009-315.307917 4.750009L0 1023.999999 0 998.475072zm1047.132369-178.710432c-4.619141-1.387475-123.386835-75.146015-263.928252-163.907866-237.13789-149.769399-255.818923-160.989826-259.546673-155.891808-2.209288 3.021371-15.195229 25.021215-28.857671 48.888553-13.662472 23.867368-26.513042 44.057945-28.556837 44.867986-2.043796 0.810041-68.66959-35.997143-148.057307-81.793757-127.26763-73.417196-144.233238-84.051812-143.427689-89.905338 1.175492-8.541691 161.877076-287.118158 166.728794-289.02466 2.011274-0.79033 68.563767 35.99696 147.894428 81.749529C592.315682 274.112941 633.618767 299.425828 633.618767 303.144239c0 2.865759-12.290883 26.510339-27.313053 52.543512-15.0222 26.033173-26.170587 48.401267-24.774194 49.706852 1.396364 1.305615 121.454988 64.722025 266.796923 140.925342 204.903721 107.431804 266.740949 141.150772 275.312339 150.123925 17.125604 17.928318 22.768955 47.753925 14.683109 77.601423-9.418217 34.765611-53.717779 56.97542-91.191524 45.719348zM391.838224 720.322589C369.052542 708.161583 103.566228 554.663293 95.275125 548.856372 84.537929 541.336308 75.073314 522.672932 75.073314 509.020249c0-31.464967 30.395683-57.456069 60.217719-51.491675 10.824539 2.164934 304.031993 170.693533 316.269423 181.784083 17.654991 16.000405 21.378748 38.207001 10.140423 60.472695-12.622977 25.009083-44.130016 34.271088-69.862655 20.537236zM666.651025 268.131838C654.93043 263.817813 363.789483 94.368909 356.228399 87.46066c-17.106115-15.62912-21.538113-39.564513-11.11064-60.004055 7.5676-14.833723 11.857289-18.100618 30.079444-22.907525 12.563279-3.314131 17.754899-3.32729 30.079054-0.076244 8.955315 2.362368 73.76875 37.879075 162.532973 89.065441 155.742862 89.809929 158.935851 92.069864 163.693727 115.859195 6.025534 30.127741-19.986979 61.363134-50.491548 60.629385C675.590605 269.896466 669.128445 269.043709 666.651025 268.131838z" p-id="1082"></path></svg>