<?xml version="1.0" standalone="no"?><!DOCTYPE svg PUBLIC "-//W3C//DTD SVG 1.1//EN" "http://www.w3.org/Graphics/SVG/1.1/DTD/svg11.dtd"><svg t="1530533331444" class="icon" style="" viewBox="0 0 1344 1024" version="1.1" xmlns="http://www.w3.org/2000/svg" p-id="8387" xmlns:xlink="http://www.w3.org/1999/xlink" width="262.5" height="200"><defs><style type="text/css"></style></defs><path d="M1328 320c-8.832 0-16 7.168-16 16l0 640c0 8.832-7.168 16-16 16l-1248 0c-8.832 0-16-7.168-16-16l0-640c0-8.832-7.168-16-16-16s-16 7.168-16 16l0 640c0 26.464 21.536 48 48 48l1248 0c26.464 0 48-21.536 48-48l0-640c0-8.832-7.168-16-16-16zM1296 0l-1248 0c-26.464 0-48 21.536-48 48l0 192c0 8.832 7.168 16 16 16l1312 0c8.832 0 16-7.168 16-16l0-192c0-26.464-21.536-48-48-48zM1312 224l-1280 0 0-176c0-8.832 7.168-16 16-16l1248 0c8.832 0 16 7.168 16 16l0 176zM560 896c8.832 0 16-7.168 16-16l0-512c0-8.832-7.168-16-16-16l-416 0c-8.832 0-16 7.168-16 16l0 512c0 8.832 7.168 16 16 16l416 0zM160 384l384 0 0 480-384 0 0-480zM720 480l480 0c8.832 0 16-7.168 16-16s-7.168-16-16-16l-480 0c-8.832 0-16 7.168-16 16s7.168 16 16 16zM720 640l480 0c8.832 0 16-7.168 16-16s-7.168-16-16-16l-480 0c-8.832 0-16 7.168-16 16s7.168 16 16 16zM720 800l480 0c8.832 0 16-7.168 16-16s-7.168-16-16-16l-480 0c-8.832 0-16 7.168-16 16s7.168 16 16 16zM96 128c0 17.664 14.336 32 32 32s32-14.336 32-32c0-17.664-14.336-32-32-32s-32 14.336-32 32zM224 128c0 17.664 14.336 32 32 32s32-14.336 32-32c0-17.664-14.336-32-32-32s-32 14.336-32 32zM352 128c0 17.664 14.336 32 32 32s32-14.336 32-32c0-17.664-14.336-32-32-32s-32 14.336-32 32z" p-id="8388"></path></svg>