<?xml version="1.0" standalone="no"?><!DOCTYPE svg PUBLIC "-//W3C//DTD SVG 1.1//EN" "http://www.w3.org/Graphics/SVG/1.1/DTD/svg11.dtd">
<svg t="1531122954354" class="icon" style="" viewBox="0 0 1024 1024" version="1.1" 
    xmlns="http://www.w3.org/2000/svg" p-id="19757" 
    xmlns:xlink="http://www.w3.org/1999/xlink" width="200" height="200">
    <defs>
        <style type="text/css"></style>
    </defs>
    <path fill="rgba(255,255,255,0.9)" d="M402.58452 118.641097 402.58452 199.891609 443.414437 199.891609 443.414437 159.573345 954.352245 159.573345 954.352245 548.225039 698.525696 548.225039 698.525696 589.054957 995.183186 589.054957 995.183186 118.641097Z" p-id="19758"></path>
    <path fill="rgba(255,255,255,0.9)" d="M699.959348 272.034696l183.683463 0 0 40.828894-183.683463 0 0-40.828894Z" p-id="19759"></path>
    <path fill="rgba(255,255,255,0.9)" d="M698.525696 394.933771l185.116091 0 0 40.829917-185.116091 0 0-40.829917Z" p-id="19760"></path>
    <path fill="rgba(255,255,255,0.9)" d="M147.475308 425.325965l367.366925 0 0 40.829917-367.366925 0 0-40.829917Z" p-id="19761"></path>
    <path fill="rgba(255,255,255,0.9)" d="M147.475308 548.225039l256.849856 0 0 40.829917-256.849856 0 0-40.829917Z" p-id="19762"></path>
    <path fill="rgba(255,255,255,0.9)" d="M35.116287 905.358903 163.745876 734.262106 131.102409 709.702758 76.048535 782.971481 76.048535 312.864614 586.267982 312.864614 586.267982 701.516308 239.26485 701.516308 239.26485 742.345202 627.0979 742.345202 627.0979 272.034696 35.116287 272.034696Z" p-id="19763"></path>
</svg>