<?xml version="1.0" standalone="no"?><!DOCTYPE svg PUBLIC "-//W3C//DTD SVG 1.1//EN" "http://www.w3.org/Graphics/SVG/1.1/DTD/svg11.dtd">
<svg t="1531122753795" class="icon" style="" viewBox="0 0 1024 1024" version="1.1" 
    xmlns="http://www.w3.org/2000/svg" p-id="19534" 
    xmlns:xlink="http://www.w3.org/1999/xlink" width="200" height="200">
    <defs>
        <style type="text/css"></style>
    </defs>
    <path fill="rgba(255,255,255,0.9)" d="M132.545782 135.683239c16.733103-23.77652 39.548738-30.096459 68.263733-29.950126 197.769272 1.011027 395.546731 0.673335 593.32112 0.372483 27.52182-0.041956 49.753147 5.711072 58.84113 41.526789-14.062274 0-25.075095 0-36.087916 0-190.371792 0-380.742561-0.048095-571.114352 0.031722-55.434543 0.023536-69.700455 14.266935-69.722968 69.180616-0.052189 130.086777-0.017396 260.174578-0.017396 390.261355 0 11.274788 0 22.548552 0 33.82334-2.823302 1.871627-5.646604 3.743254-8.470929 5.614881-11.670807-11.494799-23.341614-22.989597-35.012422-34.484396C132.545782 453.268364 132.545782 294.475801 132.545782 135.683239z" p-id="19535"></path>
    <path fill="rgba(255,255,255,0.9)" d="M872.483144 201.032596c-194.59907 1.399883-389.213489 0.654916-583.821769 0.721431-50.884924 0.017396-58.872852 7.956206-58.911738 58.888202-0.105401 138.553613-0.151449 277.106202 0.045025 415.659815 0.064468 45.140083 8.945743 53.774741 54.011124 53.874001 68.747757 0.151449 137.5037 0.671289 206.238155-0.296759 20.859074-0.293689 33.143864 7.100722 41.865503 25.971511 15.301498 33.108049 32.55751 65.312518 51.938929 103.733573 14.155395-27.628244 27.949562-48.000224 35.412534-70.474075 15.650445-47.130414 44.060495-64.99734 94.725408-60.033281 52.379974 5.131881 105.738229-0.665149 158.506037 1.804089 32.779567 1.533936 57.995879-5.357008 73.071226-36.248575 0-152.440901 0-304.881802 0-457.322703C930.419671 206.526727 905.155265 200.798259 872.483144 201.032596zM447.289186 511.841388c-28.64848 0-51.872415-23.223934-51.872415-51.872415s23.223934-51.872415 51.872415-51.872415 51.872415 23.223934 51.872415 51.872415C499.1616 488.617453 475.937666 511.841388 447.289186 511.841388zM593.962733 511.841388c-28.64848 0-51.872415-23.223934-51.872415-51.872415s23.223934-51.872415 51.872415-51.872415 51.872415 23.223934 51.872415 51.872415C645.835148 488.617453 622.61019 511.841388 593.962733 511.841388zM740.635257 511.841388c-28.64848 0-51.872415-23.223934-51.872415-51.872415s23.223934-51.872415 51.872415-51.872415 51.872415 23.223934 51.872415 51.872415C792.507672 488.617453 769.283738 511.841388 740.635257 511.841388z" p-id="19536"></path>
</svg>