<?xml version="1.0" standalone="no"?><!DOCTYPE svg PUBLIC "-//W3C//DTD SVG 1.1//EN" "http://www.w3.org/Graphics/SVG/1.1/DTD/svg11.dtd"><svg t="1530535257362" class="icon" style="" viewBox="0 0 1024 1024" version="1.1" xmlns="http://www.w3.org/2000/svg" p-id="15455" xmlns:xlink="http://www.w3.org/1999/xlink" width="200" height="200"><defs><style type="text/css"></style></defs><path d="M487.92576 812.46208c-36.41344 13.60896-74.7008 20.50048-113.80736 20.50048-61.11232 0-104.31488-5.09952-153.22112-34.5088-10.86464-6.53312-78.6944 24.15616-106.68032 33.14688 0 0 25.99936-97.67936 21.12512-103.14752-52.71552-59.21792-86.75328-132.59776-86.75328-221.04064 0-179.49696 146.04288-325.53984 325.53984-325.53984 111.77984 0 214.44608 56.39168 274.64704 150.87616 7.20896 11.30496 22.23104 14.63296 33.536 7.43424 11.3152-7.2192 14.65344-22.23104 7.424-33.54624-69.16096-108.55424-187.14624-173.35296-315.60704-173.35296C167.8336 133.28384 0 301.11744 0 507.41248c0 88.4224 30.90432 169.71776 82.37056 233.8304L55.11168 893.41952l163.55328-45.86496c47.38048 21.76 99.9936 33.98656 155.45344 33.98656 44.92288 0 88.9344-7.92576 130.80576-23.58272 12.56448-4.67968 18.96448-18.66752 14.25408-31.24224C514.49856 814.15168 500.48 807.7824 487.92576 812.46208L487.92576 812.46208zM487.92576 812.46208" p-id="15456"></path><path d="M1023.65184 644.01408c0-145.57184-118.4256-264.00768-264.00768-264.00768-145.5616 0-263.99744 118.43584-263.99744 264.00768 0 145.58208 118.43584 264.00768 263.99744 264.00768 43.776 0 85.07392-10.77248 121.4464-29.696l127.20128 29.696-17.7152-136.2432C1011.61984 733.89056 1023.65184 690.3296 1023.65184 644.01408L1023.65184 644.01408zM759.64416 859.4432c-118.76352 0-215.3984-96.64512-215.3984-215.42912s96.64512-215.42912 215.3984-215.42912c118.784 0 215.41888 96.64512 215.41888 215.42912 0 44.8-17.32608 92.02688-40.82688 126.53568 0 0 26.80832 79.80032 25.088 82.9952-0.96256 1.77152-79.70816-30.49472-86.13888-26.53184C838.38976 848.41472 803.46112 859.4432 759.64416 859.4432L759.64416 859.4432zM759.64416 859.4432" p-id="15457"></path></svg>