<?xml version="1.0" standalone="no"?><!DOCTYPE svg PUBLIC "-//W3C//DTD SVG 1.1//EN" "http://www.w3.org/Graphics/SVG/1.1/DTD/svg11.dtd">
<svg t="1531135453475" class="icon" style="" viewBox="0 0 1024 1024" version="1.1" 
    xmlns="http://www.w3.org/2000/svg" p-id="20418" 
    xmlns:xlink="http://www.w3.org/1999/xlink" width="200" height="200">
    <defs>
        <style type="text/css"></style>
    </defs>
    <path fill="rgba(255,255,255,0.9)" d="M533.5296 743.00416l416.76288-416.67072c12.48256-12.544 12.51328-32.79872 0-45.312a32.01536 32.01536 0 0 0-45.312-0.03584l-373.57056 373.50912-10.496 10.496c-11.19744 11.23328-21.30432-1.08544-21.30432-1.08544l-10.69056-10.69056-369.9456-369.95072a31.90784 31.90784 0 0 0-45.25056 0 31.97952 31.97952 0 0 0 0 45.28128l412.00128 412.032c0.45056 0.45056 0.83456 0.768 1.24928 1.152 0.44544 0.51712 0.79872 0.90112 1.21344 1.28 12.51328 12.51328 32.86528 12.51328 45.34272-0.00512z" p-id="20419"></path>
</svg>