<?xml version="1.0" standalone="no"?><!DOCTYPE svg PUBLIC "-//W3C//DTD SVG 1.1//EN" "http://www.w3.org/Graphics/SVG/1.1/DTD/svg11.dtd"><svg t="1530541905786" class="icon" style="" viewBox="0 0 1024 1024" version="1.1" xmlns="http://www.w3.org/2000/svg" p-id="19927" xmlns:xlink="http://www.w3.org/1999/xlink" width="200" height="200"><defs><style type="text/css"></style></defs><path d="M822.7 290.2H201.3c-22.3 0-42.3-17.8-42.3-42.3 0-22.3 17.8-42.3 42.3-42.3h621.3c22.3 0 42.3 17.8 42.3 42.3-2.2 24.5-20 42.3-42.2 42.3z m-62.4-133.6H261.5c-22.3 0-42.3-17.8-42.3-42.3C219.2 92 237 72 261.5 72h503.3c22.3 0 42.3 17.8 42.3 42.3-2.3 22.3-20.1 42.3-46.8 42.3z m196 311.8c0-64.6-51.2-115.8-115.8-115.8H181.3c-64.6 0-115.8 51.2-115.8 115.8v369.7c0 64.6 51.2 115.8 115.8 115.8h661.4c64.6 0 115.8-51.2 115.8-115.8l-2.2-369.7z m-409.8 147h80.2c20 0 37.9 15.6 37.9 35.6s-17.8 35.6-37.9 35.6h-82.4v42.3h80.2c20 0 37.9 15.6 37.9 35.6s-17.8 35.6-37.9 35.6h-80.2v42.3c0 20-15.6 37.9-35.6 37.9s-35.6-15.6-35.6-37.9v-42.3h-80.2c-20 0-37.9-15.6-37.9-35.6s17.8-35.6 37.9-35.6H473v-42.3h-80.2c-20 0-37.9-15.6-37.9-35.6s17.8-35.6 37.9-35.6H473v-15.6L363.9 492.9c-15.6-13.4-15.6-37.9 0-51.2 15.6-13.4 37.9-13.4 53.4 0l91.3 89.1 91.3-89.1c15.6-13.4 37.9-13.4 53.4 0 15.6 13.4 15.6 37.9 0 51.2l-109 106.9 2.2 15.6z" p-id="19928"></path></svg>