<?xml version="1.0" standalone="no"?><!DOCTYPE svg PUBLIC "-//W3C//DTD SVG 1.1//EN" "http://www.w3.org/Graphics/SVG/1.1/DTD/svg11.dtd"><svg t="1530541977671" class="icon" style="" viewBox="0 0 1609 1024" version="1.1" xmlns="http://www.w3.org/2000/svg" p-id="21270" xmlns:xlink="http://www.w3.org/1999/xlink" width="314.2578125" height="200"><defs><style type="text/css"></style></defs><path d="M1413.71428584 41.77777777v940.44444446h134.34920609V41.77777777h-134.34920609z m-268.69841309 940.44444446h134.34920701V41.77777777h-134.34920701v940.44444446zM943.49206362 41.77777777c36.94603135 0 67.17460305 30.22857169 67.17460305 67.17460305v806.09523836c0 36.94603135-30.22857169 67.17460305-67.17460305 67.17460305H137.39682526c-36.94603135 0-67.17460305-30.22857169-67.17460305-67.17460305V108.95238082c0-36.94603135 30.22857169-67.17460305 67.17460305-67.17460305h806.09523836zM473.26984139 847.87301614h134.34920609v-67.17460305h67.17460305c36.94603135 0 67.17460305-30.22857169 67.17460305-67.17460396V512c0-36.94603135-30.22857169-67.17460305-67.17460305-67.17460305H473.26984139V377.65079391h268.69841219V243.30158691H607.61904749V176.12698386H473.26984139v67.17460305H406.09523835c-36.94603135 0-67.17460305 30.22857169-67.17460305 67.17460396v201.52380913c0 36.94603135 30.22857169 67.17460305 67.17460305 67.17460305h201.52380913v67.17460304H338.92063531v134.349207h134.34920608v67.17460305z" p-id="21271"></path></svg>