<?xml version="1.0" standalone="no"?><!DOCTYPE svg PUBLIC "-//W3C//DTD SVG 1.1//EN" "http://www.w3.org/Graphics/SVG/1.1/DTD/svg11.dtd"><svg t="1530541880874" class="icon" style="" viewBox="0 0 1024 1024" version="1.1" xmlns="http://www.w3.org/2000/svg" p-id="19249" xmlns:xlink="http://www.w3.org/1999/xlink" width="200" height="200"><defs><style type="text/css"></style></defs><path d="M896.437719 96.822163l-767.479649 0c-70.644967 0-128.412648 57.403385-128.412648 128.049375l0 383.739824c0 70.643943 57.767682 127.777175 128.412648 127.777175l767.479649 0c70.644967 0 127.412878-57.134255 127.412878-127.777175l0-383.739824C1023.850597 154.225547 967.082686 96.822163 896.437719 96.822163zM959.382307 608.611361c0 35.265178-27.679409 63.308885-62.944588 63.308885l-767.479649 0c-35.265178 0-64.967664-28.04473-64.967664-63.308885l0-383.739824c0-35.267225 29.703509-64.60439 64.967664-64.60439l767.479649 0c35.265178 0 62.944588 29.337165 62.944588 64.60439L959.382307 608.611361z" p-id="19250"></path><path d="M896.437719 768.111029l-767.479649 0c-70.644967 0-128.412648-56.878428-128.412648-127.521349l0 63.956637c0 70.643943 57.767682 128.033002 128.412648 128.033002l767.479649 0c70.644967 0 127.412878-57.390082 127.412878-128.033002l0-63.956637C1023.850597 711.233624 967.082686 768.111029 896.437719 768.111029z" p-id="19251"></path><path d="M896.437719 864.301811l-767.479649 0c-70.644967 0-128.412648-57.134255-128.412648-127.777175l0 63.956637c0 70.643943 57.767682 127.265522 128.412648 127.265522l767.479649 0c70.644967 0 127.412878-56.622602 127.412878-127.265522l0-63.956637C1023.850597 807.16858 967.082686 864.301811 896.437719 864.301811z" p-id="19252"></path><path d="M498.982522 303.728536c18.742876 0 33.016974 4.764514 42.398646 14.18814 13.956873 13.999852 14.251585 35.011398 14.251585 35.82902-0.167822 11.796674 9.234315 21.536502 21.052478 21.788236 11.228739-0.232291 21.682835-9.195429 21.934568-21.052478 0.083911-3.968381-2.082428-39.524179-28.402887-66.39006-14.250562-14.552437-25.273616-23.066345-58.019415-25.982768l0-15.743566c0-11.880585-3.980661-21.493523-15.861246-21.493523-11.880585 0-15.861246 9.612938-15.861246 21.493523l0 16.697287c-64.46829 9.809413-75.483158 49.944506-75.92011 87.891769-0.294712 25.333992 9.726525 69.452815 91.942015 80.031754 51.465139 6.612605 60.012815 20.066011 60.012815 44.183292 0 21.745257-9.925047 30.077016-17.062608 34.443463-10.075473 6.17156-25.217335 9.423627-43.394323 9.423627-14.040784 0-59.927881-4.093225-59.927881-56.838519 0-11.880585-9.667174-21.493523-21.547759-21.493523-11.880585 0-21.520129 9.612938-21.520129 21.493523 0 59.654658 42.172495 90.698698 85.732593 98.015338-1.14201 2.62478 1.685385 5.500271 1.685385 8.546653l0 21.493523c0 11.880585 3.980661 21.493523 15.861246 21.493523 11.880585 0 15.861246-9.612938 15.861246-21.493523l0-21.493523c0-2.744507 1.50119-5.322216 0.565888-7.733125 18.159592-1.981121 34.830273-6.91141 47.620577-14.745842 16.9613-10.389628 37.724183-31.148417 37.70474-71.111594 0-74.154907-70.969355-83.368756-97.879238-86.833671-37.527708-4.826935-56.425104-17.23043-56.192813-36.876885C444.37481 319.78421 462.881302 303.728536 498.982522 303.728536z" p-id="19253"></path></svg>