<?xml version="1.0" standalone="no"?><!DOCTYPE svg PUBLIC "-//W3C//DTD SVG 1.1//EN" "http://www.w3.org/Graphics/SVG/1.1/DTD/svg11.dtd">
<svg t="1531043860064" class="icon" style="" viewBox="0 0 1024 1024" version="1.1" 
    xmlns="http://www.w3.org/2000/svg" p-id="1044" 
    xmlns:xlink="http://www.w3.org/1999/xlink" width="200" height="200">
    <defs>
        <style type="text/css"></style>
    </defs>
    <path fill="rgba(255,255,255,0.9)" d="M860.706133 105.0624H283.648c-48.605867 0-69.632 10.922667-69.632 88.132267h58.709333c0-16.1792 6.417067-29.354667 22.528-29.354667h536.029867c16.247467 0 29.354667 13.175467 29.354667 29.354667v529.2032c0 16.1792-13.1072 29.354667-29.354667 29.354666v58.845867c48.674133 0 88.200533-39.594667 88.200533-88.200533l2.730667-558.557867c0-41.301333-6.3488-58.7776-54.954667-58.7776h-6.5536zM184.5248 869.376a29.422933 29.422933 0 0 1-29.354667-29.354667V460.936533h587.912534v378.948267c0 16.1792-13.175467 29.354667-29.354667 29.354667H184.5248z m0-587.9808h529.2032c16.1792 0 29.354667 13.243733 29.354667 29.422933v89.361067H155.170133V310.818133c0-16.1792 13.175467-29.354667 29.354667-29.354666z m617.949867-3.208533c0-38.570667-10.581333-55.569067-59.1872-55.569067H164.795733C116.053333 222.6176 96.256 244.189867 96.256 292.864v569.617067c0 48.605867 18.158933 65.7408 68.471467 65.7408h578.491733c48.605867 0 58.5728-17.066667 58.5728-65.7408l0.6144-584.226134z" p-id="1045"></path>
    <path fill="rgba(255,255,255,0.9)" d="M530.432 590.848l-56.661333 8.942933a60.6208 60.6208 0 0 0-7.714134-15.018666 37.888 37.888 0 0 0-11.400533-8.465067v44.100267c30.9248 8.192 51.541333 16.930133 61.917867 26.077866a60.074667 60.074667 0 0 1 20.616533 46.762667 63.829333 63.829333 0 0 1-7.441067 30.5152 76.117333 76.117333 0 0 1-43.349333 36.6592c-8.669867 2.798933-19.182933 4.437333-31.744 4.983467v28.808533h-22.254933v-28.808533a140.356267 140.356267 0 0 1-36.317867-7.236267 73.591467 73.591467 0 0 1-39.7312-34.6112 93.661867 93.661867 0 0 1-8.192-26.0096l61.576533-7.168a58.026667 58.026667 0 0 0 7.3728 21.845333c3.072 4.437333 8.192 8.3968 15.291734 11.8784v-53.8624a286.72 286.72 0 0 1-43.690667-14.7456 57.821867 57.821867 0 0 1-31.744-53.725866c0-18.090667 6.280533-33.1776 18.978133-45.329067 12.629333-12.151467 31.470933-18.909867 56.456534-20.206933v-15.086934h22.254933v15.086934c22.801067 1.365333 40.209067 6.826667 52.224 16.1792a64.853333 64.853333 0 0 1 23.552 38.434133zM432.401067 575.488a28.672 28.672 0 0 0-13.5168 7.918933 17.2032 17.2032 0 0 0-3.822934 11.127467c0 4.5056 1.297067 8.3968 3.8912 11.6736a28.8768 28.8768 0 0 0 13.448534 8.328533v-39.048533z m22.254933 150.050133a35.362133 35.362133 0 0 0 18.978133-9.557333 21.572267 21.572267 0 0 0 6.075734-14.813867 19.933867 19.933867 0 0 0-5.12-13.243733c-3.413333-3.959467-10.0352-7.714133-19.933867-11.195733v48.810666z" p-id="1046"></path>
</svg>