<?xml version="1.0" standalone="no"?><!DOCTYPE svg PUBLIC "-//W3C//DTD SVG 1.1//EN" "http://www.w3.org/Graphics/SVG/1.1/DTD/svg11.dtd">
<svg t="1530541961404" class="icon" style="" viewBox="0 0 1024 1024" version="1.1" 
    xmlns="http://www.w3.org/2000/svg" p-id="21155" 
    xmlns:xlink="http://www.w3.org/1999/xlink" width="200" height="200">
    <defs>
        <style type="text/css"></style>
    </defs>
    <path d="M902.346137 648.655465a76.313622 76.313622 0 0 0-64.65603-35.42174c-5.815895 0-11.709197 0.629582-17.519931 1.966154l-3.142751 0.71215-190.675684 108.009475-2.120969-2.755713a60.574066 60.574066 0 0 0-14.454589-13.530857l-4.948929-3.318208-239.70569-86.603679a54.180195 54.180195 0 0 0-26.710799-3.070503l-101.269849 13.695994c-14.691972 1.971315-25.689019 14.408144-25.689019 28.811127v179.255475c0 16.054347 13.350239 29.131079 29.776143 29.131079h72.355511l245.903462 48.023706a38.600615 38.600615 0 0 0 25.766427-4.014876l308.990696-170.358757 2.987936-3.700085c20.667843-25.271017 22.711405-59.351026 5.114065-86.830742z m-756.886842-19.837h-22.783651a12.803225 12.803225 0 0 0-12.963201 12.591644v220.271209c0 6.930565 5.815895 12.596805 12.963201 12.596805h22.783651a12.808386 12.808386 0 0 0 12.968362-12.596805v-220.271209a12.756781 12.756781 0 0 0-12.968362-12.591644z m323.842645-338.431407c0 13.541178 9.820451 21.565771 29.461352 24.166669v-48.653289c-8.40131 0.082568-15.398962 2.203538-21.054881 6.300983-5.578511 4.092284-8.406471 10.155884-8.406471 18.185637z m49.024845 61.637132v55.418717c9.036053-0.077408 16.658126-2.750552 22.783652-7.947186s9.190868-12.04463 9.190868-20.389175c-0.082568-14.088192-10.682256-23.150048-31.97452-27.082356z" fill="" p-id="21156"></path>
    <path d="M506.070574 109.712443c-128.218032 0-232.161024 102.890248-232.161024 229.874918 0 126.979509 103.942992 229.869758 232.161024 229.869757 128.212871 0 232.155864-102.890248 232.155864-229.869757-0.082568-126.98467-104.0204-229.874918-232.155864-229.874918z m59.624533 305.600242c-10.919639 10.630651-26.7108 16.849065-47.373482 18.660404v26.762405h-19.486086v-26.762405c-35.8191-2.993096-58.762727-20.389175-68.743154-52.121151l31.035307-7.240196c5.578511 20.394336 18.149514 31.334617 37.707847 32.826004V350.290259c-25.534203-5.903623-42.104601-13.303795-49.804082-22.35533-7.699481-9.056695-11.544061-19.837-11.544061-32.361558 0-32.511213 20.502706-51.326432 61.435872-56.285683v-20.863942h19.480925v20.863942c29.936119 3.860061 48.87003 18.655244 56.806894 44.478436l-29.306536 6.218415c-5.031497-14.87775-14.139797-22.902343-27.41779-24.006693v50.536875c18.856504 5.434017 31.582321 9.526301 38.182614 12.441989 6.517724 2.915688 12.411027 8.50452 17.674746 16.926473 5.268881 8.421952 7.854296 18.263045 7.854297 29.523278-0.159976 15.976939-5.578511 29.285894-16.503311 39.906224z" fill="" p-id="21157"></path>
</svg>