<?xml version="1.0" standalone="no"?><!DOCTYPE svg PUBLIC "-//W3C//DTD SVG 1.1//EN" "http://www.w3.org/Graphics/SVG/1.1/DTD/svg11.dtd"><svg t="1530541853526" class="icon" style="" viewBox="0 0 1075 1024" version="1.1" xmlns="http://www.w3.org/2000/svg" p-id="18498" xmlns:xlink="http://www.w3.org/1999/xlink" width="209.9609375" height="200"><defs><style type="text/css"></style></defs><path d="M424.597965 760.20187 326.193169 760.20187l0-220.597359-12.085279 0c-6.671512 0-12.085279-5.523137-12.085279-12.276675l0-24.498666c0-6.726196 5.413768-12.249333 12.085279-12.249333l193.255098 0c6.671512 0 12.085279 5.523137 12.085279 12.249333l-0.027342 0 0 24.498666c0 6.753538-5.386425 12.276675-12.057937 12.276675l-12.085279 0 0 73.003836c55.860238-70.242268 136.875357-119.321625 229.483593-134.059104l0-124.790077 35.736335 30.213198c15.96788 13.534419 39.536909 11.100958 52.551825-5.495794 13.069601-16.56941 10.663482-40.958706-5.331741-54.493125L435.316131 8.781864c-6.480116-5.44111-14.108606-8.175336-21.846466-8.58547-9.515107-0.984321-19.385663 1.722562-27.424287 8.312047L13.753157 313.89415c-15.995222 13.124285-18.373999 36.830025-5.359083 52.879932 13.069601 16.049907 36.583945 18.456026 52.551825 5.277056l35.736335-29.283561 0 417.434293L60.48108 760.20187c-6.698854 0-12.085279 5.468452-12.085279 12.249333l0 36.747998c0 6.808223 5.386425 12.276675 12.085279 12.276675l355.941549 0C417.51632 800.531704 420.141177 780.052351 424.597965 760.20187z" p-id="18499"></path><path d="M913.559612 1024c-52.49714 0-90.420856-3.171702-115.8765-9.597133-22.530023-5.68719-35.68165-13.889868-41.341498-25.783752l-0.546845-0.984321-1.121033 0c-8.339389 0.164054-15.010901 0.300765-21.627728 0.300765-63.762152 0-106.689501-4.730211-131.270193-14.436714-25.893121-10.226005-29.420272-24.936142-29.420272-37.9784L572.355541 646.75883c0-13.069601 3.527152-27.779737 29.420272-37.9784 24.55335-9.67916 67.508041-14.409371 131.270193-14.409371s106.689501 4.730211 131.324878 14.409371c25.838436 10.198663 29.365588 24.908799 29.365588 37.9784l0 128.235202 2.132696 0c5.659848-0.082027 11.429065-0.191396 17.6631-0.191396 63.762152 0 106.689501 4.730211 131.270193 14.409371 25.838436 10.198663 29.365588 24.963484 29.365588 38.005742l0 144.339794c0 13.042258-3.527152 27.807079-29.365588 38.005742C1020.249112 1019.269789 977.321763 1024 913.559612 1024L913.559612 1024zM785.461121 971.584886c0 2.214723 0 8.995604 38.497903 14.491398 23.924478 3.445125 55.805554 5.304399 89.600588 5.304399s65.621425-1.859274 89.545903-5.304399c38.497903-5.495794 38.497903-12.276675 38.497903-14.491398l0-33.056793-2.351434 0.765583c-25.264249 8.421416-66.387009 12.495413-125.719714 12.495413-59.442075 0-100.564835-4.073997-125.774399-12.495413l-2.351434-0.710899L785.406436 971.584886 785.461121 971.584886zM605.002201 935.520445c0 2.242065 0 8.995604 38.497903 14.491398 23.924478 3.417783 55.750869 5.304399 89.545903 5.304399 4.374762 0 8.503443-0.164054 12.440729-0.24608 1.859274-0.054685 3.74589-0.164054 5.659848-0.218738l1.722562 0 0-39.372855-1.804589 0.054685c-6.452774 0.109369-12.003252 0.218738-17.991207 0.218738-59.332706 0-100.455465-4.128681-125.719714-12.57744l-2.351434-0.765583L605.002201 935.520445 605.002201 935.520445zM785.461121 899.456003c0 2.187381 0 8.995604 38.497903 14.491398 23.924478 3.417783 55.805554 5.249714 89.600588 5.249714s65.621425-1.831931 89.545903-5.249714c38.497903-5.495794 38.497903-12.304017 38.497903-14.491398l0-33.111478-2.351434 0.765583c-25.264249 8.448759-66.387009 12.522755-125.719714 12.522755-59.38739 0-100.51015-4.073997-125.774399-12.522755l-2.351434-0.765583L785.406436 899.456003 785.461121 899.456003zM605.002201 863.309534c0 2.242065 0 8.995604 38.497903 14.491398 23.924478 3.417783 55.750869 5.304399 89.545903 5.304399 4.320077 0 8.448759-0.136711 12.440729-0.24608 1.859274-0.109369 3.74589-0.136711 5.659848-0.136711l1.722562-0.054685 0-39.318171-1.804589 0c-5.878586 0.082027-11.757172 0.136711-17.991207 0.136711-59.38739 0-100.51015-4.073997-125.719714-12.495413l-2.351434-0.792926L605.002201 863.309534 605.002201 863.309534zM913.559612 807.421954c-33.795034 0-65.67611 1.886616-89.600588 5.304399-38.497903 5.495794-38.497903 12.249333-38.497903 14.491398 0 2.187381 0 8.968261 38.497903 14.51874 23.924478 3.39044 55.805554 5.222372 89.600588 5.222372s65.621425-1.831931 89.545903-5.222372c38.497903-5.550479 38.497903-12.33136 38.497903-14.51874 0-2.242065 0-8.995604-38.497903-14.491398C979.208379 809.335912 947.354646 807.421954 913.559612 807.421954L913.559612 807.421954zM605.002201 791.153309c0 2.214723 0 8.995604 38.497903 14.491398 23.924478 3.39044 55.750869 5.304399 89.545903 5.304399 8.065967 0 15.694458-0.164054 22.065204-0.355449l1.011664-0.054685 0.492161-0.929637c4.648184-9.241684 14.245318-16.295987 29.201534-21.600386 16.979544-5.987955 41.12276-9.815872 73.632708-11.702488l1.667878-0.136711 0-18.155261-2.242065 0.765583c-25.318933 8.476101-66.496378 12.550098-125.829083 12.550098-59.38739 0-100.51015-4.073997-125.719714-12.550098l-2.351434-0.765583L604.974858 791.153309 605.002201 791.153309zM605.002201 718.942398c0 2.242065 0 8.995604 38.497903 14.491398 23.924478 3.417783 55.750869 5.304399 89.545903 5.304399 33.849719 0 65.67611-1.886616 89.545903-5.304399 38.497903-5.495794 38.497903-12.249333 38.497903-14.491398l0-33.111478-2.242065 0.792926c-25.318933 8.421416-66.496378 12.495413-125.829083 12.495413-59.38739 0-100.51015-4.073997-125.719714-12.495413l-2.351434-0.792926L604.947516 718.942398 605.002201 718.942398zM733.073349 626.990376c-33.795034 0-65.621425 1.886616-89.545903 5.304399-38.497903 5.495794-38.497903 12.249333-38.497903 14.464056s0 8.995604 38.497903 14.491398c23.924478 3.39044 55.750869 5.304399 89.545903 5.304399 33.849719 0 65.67611-1.913958 89.545903-5.304399 38.497903-5.495794 38.497903-12.276675 38.497903-14.491398s0-8.968261-38.497903-14.464056C798.749459 628.876992 766.923068 626.990376 733.073349 626.990376L733.073349 626.990376zM733.073349 626.990376" p-id="18500"></path></svg>