<?xml version="1.0" standalone="no"?><!DOCTYPE svg PUBLIC "-//W3C//DTD SVG 1.1//EN" "http://www.w3.org/Graphics/SVG/1.1/DTD/svg11.dtd"><svg t="1530535235339" class="icon" style="" viewBox="0 0 1062 1024" version="1.1" xmlns="http://www.w3.org/2000/svg" p-id="15341" xmlns:xlink="http://www.w3.org/1999/xlink" width="207.421875" height="200"><defs><style type="text/css"></style></defs><path d="M860.556792 778.146994h-78.351489c13.718697 36.98778 33.777701 69.152455 68.896927 103.840477a64.041881 64.041881 0 1 1-55.242112 108.759405c-28.283833-4.599517-94.497709-15.331722-162.35655-52.303532-68.433781-37.29122-121.120606-91.111953-157.05433-160.29635H177.512596C84.037002 778.146994 7.985272 702.095264 7.985272 608.61967V186.118929C7.985272 92.627365 84.037002 16.591605 177.512596 16.591605h683.044196C954.032386 16.591605 1030.100087 92.627365 1030.100087 186.118929v422.500741c0 93.475594-76.067701 169.527324-169.543295 169.527324z m105.501413-592.028065c0-58.052927-47.464457-105.517384-105.501413-105.517384H177.512596c-58.036957 0-105.501414 47.464457-105.501413 105.517384v422.500741c0 58.036957 47.464457 105.485443 105.501413 105.485443h340.044823c68.769162 173.871312 225.935286 203.289054 288.571759 213.43035-64.025911-63.211413-88.093521-122.605866-105.022297-203.576524-0.702704-3.257991 0.191647-6.595835 0.399263-9.853826h159.050648c58.036957 0 105.501414-47.448486 105.501413-105.485443V186.118929z m-121.807339 409.420865h-158.25212a21.336647 21.336647 0 1 1 0-42.673293h158.25212a21.336647 21.336647 0 1 1 0 42.673293z m0-119.188169H404.677614a21.336647 21.336647 0 1 1 0-42.673294h439.573252a21.336647 21.336647 0 1 1 0 42.673294z m0-119.140258H598.096872a21.352617 21.352617 0 0 1 0-42.689264h246.153994a21.336647 21.336647 0 1 1 0 42.689264z m0-119.18817h-158.25212a21.352617 21.352617 0 0 1 0-42.705235h158.25212a21.336647 21.336647 0 1 1 0 42.705235z m-281.337102 0H191.71041a21.352617 21.352617 0 0 1 0-42.705235h371.203354a21.352617 21.352617 0 1 1 0 42.705235z m-371.203354 76.498906h265.717911a21.336647 21.336647 0 0 1 0 42.689264H191.71041a21.352617 21.352617 0 0 1 0-42.689264z m0 119.156228h110.3884a21.336647 21.336647 0 0 1 0 42.673294h-110.3884a21.336647 21.336647 0 1 1 0-42.673294z m0 119.18817h388.802893a21.336647 21.336647 0 0 1 0 42.673293H191.71041a21.336647 21.336647 0 0 1 0-42.673293z" p-id="15342"></path></svg>