<?xml version="1.0" standalone="no"?><!DOCTYPE svg PUBLIC "-//W3C//DTD SVG 1.1//EN" "http://www.w3.org/Graphics/SVG/1.1/DTD/svg11.dtd"><svg t="1534162754232" class="icon" style="" viewBox="0 0 1024 1024" version="1.1" xmlns="http://www.w3.org/2000/svg" p-id="1983" xmlns:xlink="http://www.w3.org/1999/xlink" width="128" height="128"><defs><style type="text/css"></style></defs><path fill="rgba(255,255,255,0.9)" d="M768 0c-35.346 0-64 28.654-64 64v128H320V64c0-35.346-28.654-64-64-64s-64 28.654-64 64v896c0 35.348 28.654 64 64 64s64-28.652 64-64V832h384v128c0 35.348 28.654 64 64 64 35.348 0 64-28.652 64-64V64c0-35.346-28.652-64-64-64z m-64 704H320V576h384v128z m0-256H320V320h384v128z" p-id="1984"></path></svg>