<?xml version="1.0" standalone="no"?><!DOCTYPE svg PUBLIC "-//W3C//DTD SVG 1.1//EN" "http://www.w3.org/Graphics/SVG/1.1/DTD/svg11.dtd"><svg t="1531051311867" class="icon" style="" viewBox="0 0 1024 1024" version="1.1" xmlns="http://www.w3.org/2000/svg" p-id="1886" xmlns:xlink="http://www.w3.org/1999/xlink" width="200" height="200"><defs><style type="text/css"></style></defs><path fill="rgba(255,255,255,0.9)" d="M776.704 367.104c-99.84 0-166.4 50.176-194.048 97.792h-2.56v-82.432h-196.608v605.184h204.8v-299.52c0-78.848 16.384-155.136 122.88-155.136 104.96 0 106.496 90.112 106.496 160.256v294.4h204.8v-331.776c0-163.84-38.4-288.768-245.76-288.768z m-733.184 619.52h170.496V366.592h-170.496v620.032z m84.992-950.784c-70.656 0-127.488 55.296-127.488 123.904 0 68.608 57.344 123.904 127.488 123.904 70.656 0 127.488-55.296 127.488-123.904 0-68.608-56.832-123.904-127.488-123.904z" p-id="1887"></path></svg>