<?xml version="1.0" standalone="no"?><!DOCTYPE svg PUBLIC "-//W3C//DTD SVG 1.1//EN" "http://www.w3.org/Graphics/SVG/1.1/DTD/svg11.dtd"><svg t="1530541224895" class="icon" style="" viewBox="0 0 1024 1024" version="1.1" xmlns="http://www.w3.org/2000/svg" p-id="3392" xmlns:xlink="http://www.w3.org/1999/xlink" width="200" height="200"><defs><style type="text/css"></style></defs><path fill="rgba(255,255,255,0.9)" d="M727.40864 962.048l-431.79008 0c-25.554944 0-46.262272-20.708352-46.262272-46.263296L249.356288 113.890304c0-25.556992 20.708352-46.262272 46.262272-46.262272l431.79008 0c25.555968 0 46.262272 20.706304 46.262272 46.262272l0 801.895424C773.670912 941.340672 752.964608 962.048 727.40864 962.048zM511.512576 915.785728c17.032192 0 30.84288-13.809664 30.84288-30.841856s-13.810688-30.84288-30.84288-30.84288c-17.031168 0-30.841856 13.810688-30.841856 30.84288S494.481408 915.785728 511.512576 915.785728zM727.40864 160.1536l-15.423488 0L311.04 160.1536l-15.422464 0 0 647.68512 15.422464 0 400.945152 0 15.423488 0L727.40864 160.1536z" p-id="3393"></path></svg>