<?xml version="1.0" standalone="no"?><!DOCTYPE svg PUBLIC "-//W3C//DTD SVG 1.1//EN" "http://www.w3.org/Graphics/SVG/1.1/DTD/svg11.dtd"><svg t="1530541241831" class="icon" style="" viewBox="0 0 1024 1024" version="1.1" xmlns="http://www.w3.org/2000/svg" p-id="3501" xmlns:xlink="http://www.w3.org/1999/xlink" width="200" height="200"><defs><style type="text/css"></style></defs><path d="M210.651429 87.771429l0 772.388571 513.462857 0 0-57.051429c32.182857-8.777143 61.44-23.405714 89.234286-40.96l0 219.428571c0 21.942857-17.554286 40.96-40.96 40.96L157.988571 1022.537143c-21.942857 0-40.96-17.554286-40.96-40.96L117.028571 40.96C118.491429 19.017143 136.045714 0 157.988571 0l0 0 615.862857 0c21.942857 0 40.96 17.554286 40.96 40.96l0 125.805714c-27.794286-16.091429-57.051429-29.257143-89.234286-36.571429L725.577143 87.771429 210.651429 87.771429 210.651429 87.771429zM396.434286 918.674286c-7.314286 0-13.165714 5.851429-13.165714 13.165714L383.268571 950.857143c0 7.314286 5.851429 13.165714 13.165714 13.165714L541.257143 964.022857c7.314286 0 13.165714-5.851429 13.165714-13.165714l0-19.017143c0-7.314286-5.851429-13.165714-13.165714-13.165714L396.434286 918.674286z" p-id="3502"></path><path d="M650.971429 232.594286c57.051429 0 73.142857 4.388571 109.714286 17.554286-26.331429-7.314286-54.125714-11.702857-84.845714-11.702857-140.434286 0-253.074286 86.308571-253.074286 193.097143s112.64 193.097143 253.074286 193.097143c140.434286 0 253.074286-86.308571 253.074286-193.097143 0-16.091429-2.925714-30.72-7.314286-45.348571 2.925714-2.925714 24.868571 90.697143-10.24 163.84-43.885714 81.92-143.36 138.971429-261.851429 138.971429-112.64 0-201.874286-23.405714-256-131.657143C393.508571 558.811429 276.48 257.462857 650.971429 232.594286z" p-id="3503"></path><path d="M784.091429 275.017143 665.6 384.731429 596.845714 532.48 718.262857 418.377143 784.091429 275.017143Z" p-id="3504"></path></svg>