<?xml version="1.0" standalone="no"?><!DOCTYPE svg PUBLIC "-//W3C//DTD SVG 1.1//EN" "http://www.w3.org/Graphics/SVG/1.1/DTD/svg11.dtd"><svg t="1530541199308" class="icon" style="" viewBox="0 0 1024 1024" version="1.1" xmlns="http://www.w3.org/2000/svg" p-id="2614" xmlns:xlink="http://www.w3.org/1999/xlink" width="200" height="200"><defs><style type="text/css"></style></defs><path d="M748.992 38.048 275.008 38.048c-37.408 0-67.68 30.304-67.68 67.68l0 812.512c0 37.408 30.304 67.68 67.68 67.68l473.984 0c37.408 0 67.68-30.304 67.68-67.68L816.672 105.728C816.672 68.352 786.4 38.048 748.992 38.048zM275.008 71.904l473.984 0c18.656 0 33.824 15.168 33.824 33.824l0 710.944L241.184 816.672 241.184 105.728C241.184 87.072 256.352 71.904 275.008 71.904zM748.992 952.096 275.008 952.096c-18.656 0-33.824-15.168-33.824-33.824L241.184 833.6l541.632 0 0 84.672C782.816 936.928 767.648 952.096 748.992 952.096z" p-id="2615"></path><path d="M461.216 884.416l101.568 0 0 16.928-101.568 0 0-16.928Z" p-id="2616"></path></svg>