<?xml version="1.0" standalone="no"?><!DOCTYPE svg PUBLIC "-//W3C//DTD SVG 1.1//EN" "http://www.w3.org/Graphics/SVG/1.1/DTD/svg11.dtd">
<svg t="1531053414658" class="icon" style="" viewBox="0 0 1024 1024" version="1.1" 
    xmlns="http://www.w3.org/2000/svg" p-id="3244" 
    xmlns:xlink="http://www.w3.org/1999/xlink" width="200" height="200">
    <defs>
        <style type="text/css"></style>
    </defs>
    <path fill="rgba(255,255,255,0.9)" d="M894.8736 250.2656l-161.6384-168.96-42.496-44.3904H192.768A69.9904 69.9904 0 0 0 122.88 106.6496v800.4608a69.9904 69.9904 0 0 0 69.888 69.888h638.3616A70.0416 70.0416 0 0 0 901.12 907.1104v-650.24z m-191.0272-133.12l120.2176 125.696h-96.4096a23.8592 23.8592 0 0 1-23.808-23.808zM855.04 907.1104a23.8592 23.8592 0 0 1-23.808 23.808H192.768a23.8592 23.8592 0 0 1-23.808-23.808V106.6496a23.8592 23.8592 0 0 1 23.808-23.808h464.896v136.3968a69.9904 69.9904 0 0 0 69.888 69.888H855.04z" p-id="3245"></path>
    <path fill="rgba(255,255,255,0.9)" d="M254.3616 780.8c0 12.3904 11.52 22.5792 25.6 22.5792h463.7184c14.1824 0 25.6-10.24 25.6-22.5792s-11.6736-22.5792-25.6-22.5792H280.064c-13.824 0-25.7024 10.1888-25.7024 22.5792zM265.2672 510.7712a23.5008 23.5008 0 0 0 22.6816 0 22.6816 22.6816 0 0 0 11.8784-18.7904 106.1888 106.1888 0 1 1 212.3776 0 22.6816 22.6816 0 0 0 45.312 0 151.6544 151.6544 0 0 0-87.296-137.0624 86.6304 86.6304 0 1 0-128.5632 0 151.6544 151.6544 0 0 0-87.04 137.0624 21.6576 21.6576 0 0 0 10.6496 18.7904z m104.3456-234.752a41.984 41.984 0 1 1 0 41.984 41.9328 41.9328 0 0 1 0-41.984zM282.1632 661.248h334.2336c15.36 0 27.8016-10.24 27.904-22.5792s-12.4928-22.5792-27.8016-22.5792h-334.336c-15.36 0-27.8016 10.24-27.8016 22.5792s12.4928 22.5792 27.8016 22.5792z" p-id="3246"></path>
</svg>