<?xml version="1.0" standalone="no"?><!DOCTYPE svg PUBLIC "-//W3C//DTD SVG 1.1//EN" "http://www.w3.org/Graphics/SVG/1.1/DTD/svg11.dtd"><svg t="1530535347340" class="icon" style="" viewBox="0 0 1024 1024" version="1.1" xmlns="http://www.w3.org/2000/svg" p-id="19064" xmlns:xlink="http://www.w3.org/1999/xlink" width="200" height="200"><defs><style type="text/css"></style></defs><path d="M0 3.951445" p-id="19065"></path><path d="M98.594194 617.565672a16.946054 16.946054 0 0 1-15.918678-22.692584l43.590082-120.710995H16.934764a16.934764 16.934764 0 0 1-16.934764-16.934764v-440.303855a16.934764 16.934764 0 0 1 16.934764-16.934764h677.390547a16.934764 16.934764 0 0 1 16.934763 16.934764v440.303855a16.934764 16.934764 0 0 1-16.934763 16.934764H320.846033L107.942184 614.720632a16.641228 16.641228 0 0 1-9.34799 2.84504zM33.869527 440.292566h116.477305a16.923474 16.923474 0 0 1 15.918678 22.692583l-34.44531 95.376589 174.529675-115.258002c2.777301-1.828954 5.994906-2.811171 9.31412-2.81117H677.390547v-406.434328H33.869527v406.434328z" p-id="19066"></path><path d="M933.68126 1024c-3.251475 0-6.502949-0.948347-9.28025-2.84504l-212.937719-140.558539H355.630037c-9.34799 0-16.934764-7.620644-16.934764-16.934763v-389.499565a16.934764 16.934764 0 0 1 33.869528 0v372.564801h343.97892c3.319214 0 6.570688 0.982216 9.31412 2.811171l174.563544 115.258001-34.479179-95.376589a16.934764 16.934764 0 0 1 15.952547-22.692583H982.216293v-440.303856H711.260074a16.934764 16.934764 0 0 1 0-33.869527h287.890983c9.31412 0 16.934764 7.586774 16.934763 16.934764v474.173383c0 9.31412-7.620644 16.934764-16.934763 16.934763h-93.1412l43.590081 120.710996a16.979923 16.979923 0 0 1-15.918678 22.692583zM609.651492 169.336347H135.478109a16.934764 16.934764 0 0 1 0-33.869527h474.173383a16.934764 16.934764 0 0 1 0 33.869527zM609.651492 237.075402H135.478109a16.934764 16.934764 0 0 1 0-33.869528h474.173383a16.934764 16.934764 0 0 1 0 33.869528zM372.564801 304.814456H135.478109a16.934764 16.934764 0 0 1 0-33.869527h237.086692a16.934764 16.934764 0 0 1 0 33.869527z" p-id="19067"></path><path d="M880.607711 609.640202H474.173383c-9.34799 0-16.934764-7.620644-16.934764-16.934763s7.586774-16.934764 16.934764-16.934764h406.434328c9.34799 0 16.934764 7.620644 16.934764 16.934764s-7.586774 16.934764-16.934764 16.934763zM880.607711 677.379257H474.173383c-9.34799 0-16.934764-7.620644-16.934764-16.934764s7.586774-16.934764 16.934764-16.934763h406.434328c9.34799 0 16.934764 7.620644 16.934764 16.934763s-7.586774 16.934764-16.934764 16.934764zM711.260074 745.118312H474.173383c-9.34799 0-16.934764-7.620644-16.934764-16.934764s7.586774-16.934764 16.934764-16.934764h237.086691c9.34799 0 16.934764 7.620644 16.934764 16.934764s-7.586774 16.934764-16.934764 16.934764z" p-id="19068"></path></svg>